# xmcd
#
# Track frame offsets: 
#        150
#        21954
#        46015
#        66157
#        79017
#        91785
#
# Disc length: 1499 seconds
#
# Revision: 1
# Processed by: cddbd v1.5.2PL0 Copyright (c) Steve Scherf et al.
# Submitted via: ExactAudioCopyFreeDBPlugin 1.0
#
DISCID=3c05d906
DTITLE=Angus and Julia Stone - Heart Full of Wine
DYEAR=2007
DGENRE=Blues
TTITLE0=What You Wanted
TTITLE1=Fooled Myself
TTITLE2=Heart Full of Wine
TTITLE3=I'm Yours
TTITLE4=Sadder Than You
TTITLE5=Wooden Chair
EXTD=YEAR: 2007
EXTT0=
EXTT1=
EXTT2=
EXTT3=
EXTT4=
EXTT5=
PLAYORDER=
